PathFileType	4	(X/Y/Z)	C:\Users\Basilio\Documents\Thesis Gigler\squatting_fais\c3dfiles\077\SLS_back_pre2\markers_experimental.trc
DataRate	CameraRate	NumFrames	NumMarkers	Units	OrigDataRate	OrigDataStartFrame	OrigNumFrames
200.000000	200.000000	4	60	mm	200.000000	576	1537
Frame#	Time	FHD			RBHD			C7			T10			CLAV			LSHO			LUUPA			LMUPA			LDUPA			LLEP			LMEP			LRAD			LUL			LRFIN			RSHO			RUPA1			RMUPA			RDUPA			RLEP			RMEP			RRAD			RUL			RUFIN			LASI			RASI			USACR			LSACR			RSACR			LTHI1			LTHI2			LTHI3			LTHI4			LLFC			LMFC			LTIB1			LTIB2			LTIB3			LTIB4			LLMAL			LHEE			LMT1			LMT2			LMT5			RTHI			RTHI2			RTHI3			RTHI4			RLFC			RMFC			RTIB1			RTIB2			RTIB3			RTIB4			RLMAL			RMMAL			RHEE			RMT1			RMT2			RMT5			LBHD			
		X1	Y1	Z1	X2	Y2	Z2	X3	Y3	Z3	X4	Y4	Z4	X5	Y5	Z5	X6	Y6	Z6	X7	Y7	Z7	X8	Y8	Z8	X9	Y9	Z9	X10	Y10	Z10	X11	Y11	Z11	X12	Y12	Z12	X13	Y13	Z13	X14	Y14	Z14	X15	Y15	Z15	X16	Y16	Z16	X17	Y17	Z17	X18	Y18	Z18	X19	Y19	Z19	X20	Y20	Z20	X21	Y21	Z21	X22	Y22	Z22	X23	Y23	Z23	X24	Y24	Z24	X25	Y25	Z25	X26	Y26	Z26	X27	Y27	Z27	X28	Y28	Z28	X29	Y29	Z29	X30	Y30	Z30	X31	Y31	Z31	X32	Y32	Z32	X33	Y33	Z33	X34	Y34	Z34	X35	Y35	Z35	X36	Y36	Z36	X37	Y37	Z37	X38	Y38	Z38	X39	Y39	Z39	X40	Y40	Z40	X41	Y41	Z41	X42	Y42	Z42	X43	Y43	Z43	X44	Y44	Z44	X45	Y45	Z45	X46	Y46	Z46	X47	Y47	Z47	X48	Y48	Z48	X49	Y49	Z49	X50	Y50	Z50	X51	Y51	Z51	X52	Y52	Z52	X53	Y53	Z53	X54	Y54	Z54	X55	Y55	Z55	X56	Y56	Z56	X57	Y57	Z57	X58	Y58	Z58	X59	Y59	Z59	X60	Y60	Z60	

577	2.88	-245.0658874511719	1862.237670898438	-1069.75537109375	-386.7714233398439	1743.063354492188	-992.4470825195315	-424.0015563964845	1600.138793945313	-1080.473999023438	-410.155242919922	1266.609985351563	-1070.689208984375	-258.0745544433594	1565.388549804688	-1073.648071289063	-284.5607299804688	1600.940551757813	-1249.692749023438	-120.1054916381836	1542.222045898438	-1362.69580078125	-89.5291213989258	1577.019165039063	-1343.653564453125	-52.59885787963869	1540.287353515625	-1375.328735351563	11.80613136291504	1550.156982421875	-1377.724365234375	20.81185722351075	1484.962280273438	-1344.02783203125	311.5931091308594	1595.896484375	-1283.150512695313	310.2347717285157	1590.556030273438	-1362.598876953125	405.0611267089845	1624.138916015625	-1299.898559570313	-283.0356445312501	1597.009033203125	-906.3963012695315	-129.6721649169922	1550.307861328125	-792.6003417968752	-101.5313034057617	1581.060302734375	-819.8469238281252	-59.96171951293947	1551.65625	-785.5915527343752	6.805423736572267	1558.676879882813	-791.808776855469	12.51422309875489	1488.07958984375	-824.070983886719	287.5997619628907	1591.525390625	-900.6389770507815	301.7080993652344	1600.004272460938	-821.9043579101565	380.6693420410157	1621.311645507813	-905.0593872070315	-218.6250000000001	1055.8740234375	-1188.538940429688	-235.0501708984376	1102.915893554688	-908.3060302734377	-421.4238586425782	1175.95361328125	-1064.94189453125	-427.2524719238282	1143.991943359375	-1091.734008789063	-436.0732421875001	1146.173706054688	-1035.953491210938	-281.0061340332032	840.2006835937502	-1220.283081054688	-250.4659881591797	763.3088989257814	-1207.296264648438	-202.1021118164063	768.1311645507815	-1201.190063476563	-277.8402099609376	711.7896118164064	-1190.731201171875	-247.6681213378907	567.9980468750001	-1153.089111328125	-254.3704071044922	558.3389282226564	-1018.262390136719	-245.081771850586	349.8132324218751	-1059.6162109375	-272.2565002441407	300.8137817382813	-1129.209716796875	-245.3435058593751	298.5022583007813	-1090.200439453125	-266.3931884765626	226.0805053710938	-1053.113159179688	-336.2569274902344	110.5391540527344	-1095.1357421875	-397.8413696289064	81.55806732177736	-1043.54052734375	-188.8236999511719	53.43679428100587	-1018.336669921875	-183.0591430664063	58.6382293701172	-1060.285888671875	-314.3358459472657	126.5152435302735	-1009.163818359375	-165.9124450683594	830.227966308594	-797.2750244140627	-101.1088943481446	803.410827636719	-794.4311523437502	-72.70178985595705	820.194030761719	-804.1201782226565	-92.6902542114258	721.7889404296876	-795.426208496094	-91.4517288208008	684.5152587890626	-795.8274536132815	-69.84555816650392	646.1697998046876	-920.6541137695315	-185.2294158935547	593.9997558593751	-826.5574951171877	-281.2251892089844	637.3380737304689	-806.2344360351565	-272.1151428222657	594.7836303710939	-823.7886962890627	-308.3724670410157	578.7179565429689	-868.9395141601565	-502.1704406738282	604.9232177734376	-852.7424316406252	-473.1798095703126	576.7229614257814	-935.6384887695315	-540.5017700195314	660.5178222656251	-913.5097656250002	-521.9105224609376	435.4891052246095	-915.179138183594	-528.6688842773439	435.4527587890626	-876.7139892578127	-560.3414306640626	449.9631652832032	-833.697448730469	-382.0219116210938	1749.663452148438	-1139.316650390625	
578	2.885	-244.6942138671876	1861.919067382813	-1069.977783203125	-386.524627685547	1742.999633789063	-992.7229614257815	-423.7100524902345	1600.1552734375	-1080.681640625	-410.1297607421876	1266.563598632813	-1070.794555664063	-257.8011779785157	1565.33154296875	-1073.727294921875	-284.2399902343751	1600.808471679688	-1249.910522460938	-119.7732162475586	1542.013916015625	-1362.702758789063	-89.27709960937501	1576.881591796875	-1343.73291015625	-52.40379333496095	1540.098510742188	-1375.42333984375	11.86196231842041	1550.02783203125	-1377.841918945313	20.93341445922852	1484.756469726563	-1344.046630859375	311.7702026367188	1595.759155273438	-1283.249755859375	310.3911437988282	1590.3740234375	-1362.730346679688	405.3522338867189	1623.753051757813	-1299.985595703125	-282.6515197753907	1596.9580078125	-906.498229980469	-129.5440216064453	1550.023193359375	-792.761413574219	-101.2913055419922	1580.809814453125	-820.0169677734377	-59.78842926025392	1551.485107421875	-785.7053833007815	7.042032241821291	1558.493408203125	-791.892761230469	12.76278018951416	1487.968505859375	-824.105651855469	287.6393737792969	1592.076538085938	-900.9572753906252	301.9390869140626	1599.76025390625	-822.091247558594	380.8627929687501	1620.956787109375	-905.336364746094	-218.9513854980469	1055.865844726563	-1188.68896484375	-235.1640777587891	1102.702880859375	-908.4406738281252	-421.3255310058595	1176.03076171875	-1065.17138671875	-427.313934326172	1143.951049804688	-1091.8515625	-436.0166931152345	1146.10986328125	-1036.149536132813	-280.8959960937501	840.0761718750002	-1220.3544921875	-250.3429412841797	763.3316040039064	-1207.441650390625	-202.0843658447266	768.0252685546877	-1201.225219726563	-277.6602172851563	711.6956176757814	-1190.864013671875	-247.3888397216797	567.9017944335939	-1153.243896484375	-254.7640838623047	558.0833129882814	-1018.191833496094	-244.9455566406251	349.7316284179688	-1059.696655273438	-272.1630554199219	300.7659301757813	-1129.311889648438	-245.2359161376954	298.5254516601563	-1090.235961914063	-266.2948608398438	226.0906829833985	-1053.173706054688	-336.1578674316407	110.489616394043	-1095.168090820313	-397.8326721191407	81.5601272583008	-1043.503051757813	-188.7942199707032	53.37673568725587	-1018.320434570313	-182.3292388916016	59.54270172119142	-1060.427490234375	-314.2659606933594	126.4613571166992	-1009.174194335938	-166.5525207519532	829.8447875976565	-797.2974243164065	-101.8095016479492	802.9089965820315	-794.4211425781252	-73.35639953613283	819.612243652344	-803.987976074219	-93.55948638916017	721.0948486328126	-795.4027099609377	-92.45396423339845	683.7783203125001	-795.7655029296877	-70.63309478759767	645.5735473632814	-920.6221313476565	-186.2073974609375	593.6946411132814	-826.8728637695315	-282.4412536621094	637.1004028320314	-806.5996093750002	-273.3568115234376	594.6110839843751	-824.1254882812502	-310.4782104492188	578.8778686523439	-870.2420654296877	-503.285369873047	605.2313232421876	-853.3101196289065	-474.3686828613282	576.8304443359376	-936.0405273437502	-541.4553222656251	660.7524414062501	-914.1086425781252	-523.3366088867189	435.9256591796876	-915.7373657226565	-530.2070312500001	435.759002685547	-877.4678344726565	-562.1395263671876	450.3625793457032	-834.6378173828127	-381.5575866699219	1749.014770507813	-1139.370239257813	
579	2.89	-244.6784973144532	1862.17529296875	-1070.307861328125	-386.2313842773439	1742.911743164063	-992.9097900390627	-423.3959350585939	1600.05810546875	-1080.805419921875	-410.051483154297	1266.576293945313	-1070.915893554688	-257.5434570312501	1565.2138671875	-1073.912963867188	-283.9992675781251	1600.70654296875	-1250.078369140625	-119.6988830566407	1542.02099609375	-1362.923828125	-89.03263092041017	1576.652587890625	-1343.80712890625	-52.2159881591797	1539.9052734375	-1375.562133789063	12.08317565917969	1549.914184570313	-1378.015869140625	21.24714851379395	1484.631713867188	-1344.174072265625	311.9141235351563	1595.599487304688	-1283.324340820313	310.9984436035157	1590.04345703125	-1362.779296875	405.186004638672	1623.929077148438	-1299.921020507813	-282.8778381347657	1597.11083984375	-906.851745605469	-129.3564453125	1549.878051757813	-792.8927001953127	-101.0264053344727	1580.690307617188	-820.033142089844	-59.57815551757814	1551.3388671875	-785.7727661132815	7.259833335876467	1558.401245117188	-791.9459228515627	12.95424842834473	1487.786743164063	-824.1109619140627	287.7901000976563	1591.72119140625	-901.056579589844	302.1290283203126	1599.563232421875	-822.2446289062502	381.0075683593751	1620.54296875	-905.349060058594	-219.0080871582032	1055.735107421875	-1188.774291992188	-235.3964080810547	1102.340087890625	-908.6114501953127	-421.3878479003907	1176.094116210938	-1065.332885742188	-427.4509277343751	1143.97802734375	-1092.029907226563	-436.2359619140626	1146.066650390625	-1036.312622070313	-280.6954650878907	840.0023193359377	-1220.566284179688	-250.2000885009766	763.3342285156251	-1207.580444335938	-202.063949584961	767.9368286132814	-1201.338500976563	-277.4491882324219	711.6822509765626	-1191.013305664063	-247.1770172119141	567.7775268554689	-1153.464111328125	-255.2350616455079	557.8704833984376	-1018.159606933594	-244.808578491211	349.6720886230469	-1059.83203125	-272.0735778808594	300.6805725097657	-1129.390625	-245.1231842041016	298.5354919433594	-1090.401977539063	-266.2264099121094	226.0595245361329	-1053.262084960938	-336.1356811523438	110.513900756836	-1095.173706054688	-397.8214416503907	81.57698822021486	-1043.496948242188	-188.8251190185547	53.43650817871095	-1018.337890625	-182.4804229736328	59.43602752685548	-1060.52294921875	-314.2228393554688	126.4702987670899	-1009.222534179688	-167.401611328125	829.2521972656252	-797.367614746094	-102.6385345458985	802.2493286132815	-794.3402099609377	-74.20664978027345	818.922790527344	-804.1917114257815	-94.4578094482422	720.5497436523439	-795.2637939453127	-93.50003814697267	683.1978149414064	-795.8235473632815	-71.51125335693361	644.9135131835939	-920.6438598632815	-187.3208770751953	593.3063354492189	-827.0855712890627	-283.6224670410157	637.0460205078126	-806.7741699218752	-274.4778747558594	594.6901245117189	-824.3362426757815	-311.4875793457032	578.9813232421876	-870.1467285156252	-504.3428955078126	605.5252685546876	-853.8125610351565	-475.3503723144532	576.9504394531251	-936.462097167969	-542.0823364257814	661.1444702148439	-914.6202392578127	-524.7617187500001	436.0981445312501	-916.140319824219	-531.8026733398439	435.9739990234376	-877.9680175781252	-563.6866455078126	450.8237915039064	-835.3009033203127	-381.2159118652344	1749.038452148438	-1139.649658203125	
580	2.895	-244.3587799072266	1861.993896484375	-1070.543212890625	-385.9275512695314	1742.8798828125	-993.1558837890627	-423.0674438476564	1600.087158203125	-1080.976684570313	-410.0329895019532	1266.554443359375	-1070.999755859375	-257.2633666992188	1565.101806640625	-1074.080200195313	-284.7680664062501	1600.820190429688	-1250.36279296875	-119.4551620483399	1541.835815429688	-1363.041870117188	-88.78161621093751	1576.382934570313	-1343.882446289063	-51.9802703857422	1539.720092773438	-1375.756469726563	12.33599758148194	1549.713134765625	-1378.063232421875	21.42877769470215	1484.447265625	-1344.268188476563	312.1349792480469	1595.301879882813	-1283.40283203125	311.2715148925782	1589.791015625	-1362.822265625	405.9195861816407	1623.038696289063	-1300.08447265625	-282.5853881835938	1597.064208984375	-907.0275878906252	-129.1074371337891	1549.637329101563	-792.9331665039065	-100.7832946777344	1580.483276367188	-820.1943969726565	-59.37629318237306	1551.143676757813	-785.9074707031252	7.497263431549074	1558.192016601563	-792.1373291015627	13.14879798889161	1487.669555664063	-824.1455688476565	287.9350585937501	1591.437377929688	-901.1888427734377	302.3756408691407	1599.156494140625	-822.374938964844	381.1692504882813	1620.405517578125	-905.5725097656252	-219.0035552978516	1055.594604492188	-1188.883666992188	-235.6238250732422	1101.967163085938	-908.7673950195315	-421.266326904297	1176.0517578125	-1065.531005859375	-427.5369567871095	1143.978271484375	-1092.131225585938	-436.2016601562501	1146.141235351563	-1036.466186523438	-280.5202636718751	839.8931274414065	-1220.7333984375	-250.0869140625001	763.3897705078126	-1207.724243164063	-201.9004669189454	767.7665405273439	-1201.44873046875	-277.3395080566407	711.6036987304689	-1191.27783203125	-246.6678771972657	567.6411743164064	-1153.608642578125	-251.0616607666016	558.0729980468751	-1018.237976074219	-244.5634307861329	349.6319885253907	-1059.967041015625	-271.9221496582032	300.8659057617188	-1129.553833007813	-245.0774536132813	298.3195495605469	-1090.603515625	-266.1001892089844	226.0684204101563	-1053.391235351563	-336.0694580078126	110.372184753418	-1095.277099609375	-397.837860107422	81.58668518066408	-1043.49169921875	-188.7688140869141	53.43925857543947	-1018.372985839844	-182.5106201171875	59.19704818725587	-1060.409545898438	-314.1379394531251	126.5360107421875	-1009.223754882813	-168.2303924560547	828.7169189453127	-797.5022583007815	-103.4280548095703	801.5236816406252	-794.3262329101565	-75.00670623779298	818.5647583007815	-804.2964477539065	-95.46743774414064	719.8799438476564	-795.3743896484377	-94.47640991210939	682.7457275390626	-795.822448730469	-72.3407669067383	644.2425537109376	-920.6633300781252	-188.4047088623047	593.2228393554689	-827.1448364257815	-284.6867065429688	636.9111938476564	-807.0357055664065	-275.7324218750001	594.3137207031251	-824.4861450195315	-312.4724426269532	578.4622192382814	-869.976257324219	-505.4851379394532	605.7697143554689	-854.2271728515627	-475.4905700683595	576.3005981445314	-936.771911621094	-542.9338378906251	661.4468383789064	-915.206481933594	-526.2675170898439	436.4381103515626	-916.6360473632815	-533.3101196289064	436.4634704589845	-878.4981689453127	-565.3089599609376	451.1598510742189	-835.848083496094	-380.8617553710938	1748.582397460938	-1139.789306640625	
